# xmcd
#
# Track frame offsets:
# 150
# 17570
# 31927
# 43475
# 63007
# 77752
# 91587
# 106977
# 129057
# 152040
# 177220
#
# Disc length: 2613 seconds
#
# Revision: 0
# Processed by: cddbd v1.5.1PL0 Copyright (c) Steve Scherf et al.
# Submitted via: MacMP3 Pro 5.0 (http://mp3.act2.co.jp/)
#
DISCID=760a330b
DTITLE=The Blues Project - Live at the Cafe Au-Go-Go
DYEAR=1900
DGENRE=
TTITLE0=Goin' Down Louisiana
TTITLE1=You Go and I'll Go With You
TTITLE2=Catch the Wind
TTITLE3=I Want to Be Your Driver
TTITLE4=Alberta
TTITLE5=Way My Baby Walks
TTITLE6=Violets of Dawn
TTITLE7=Back Door Man
TTITLE8=Jelly Jelly Blues
TTITLE9=Spoonful
TTITLE10=Who Do You Love?
EXTD=
EXTT0=
EXTT1=
EXTT2=
EXTT3=
EXTT4=
EXTT5=
EXTT6=
EXTT7=
EXTT8=
EXTT9=
EXTT10=
PLAYORDER=
